<svg xmlns="http://www.w3.org/2000/svg" width="512" height="512" viewBox="0 0 512 512" fill="none" aria-hidden="true">
  <rect width="512" height="512" fill="#000000"/>
  <g transform="translate(256 256) scale(0.78) translate(-256 -256)">
    <rect width="512" height="512" rx="112" fill="#000000"/>
    <path
      d="M152 184C152 168.536 164.536 156 180 156H332C347.464 156 360 168.536 360 184V328C360 343.464 347.464 356 332 356H180C164.536 356 152 343.464 152 328V184Z"
      fill="#FAFAFA"
    />
    <path d="M204 228H308" stroke="#F0BF4C" stroke-width="20" stroke-linecap="round"/>
    <path d="M204 276H284" stroke="#F0BF4C" stroke-width="20" stroke-linecap="round"/>
    <path d="M204 324H256" stroke="#F0BF4C" stroke-width="20" stroke-linecap="round"/>
    <path
      d="M328 268C328 296.719 304.719 320 276 320C247.281 320 224 296.719 224 268C224 239.281 247.281 216 276 216C304.719 216 328 239.281 328 268Z"
      fill="#000000"
      opacity="0.08"
    />
  </g>
</svg>
